<svg
    viewBox="0 0 1440 490"
    version="1.1"
    xmlns="http://www.w3.org/2000/svg"
    preserveAspectRatio="none"
  >
    <defs>
      <linearGradient id="sw-gradient-0" x1="0" x2="0" y1="1" y2="0">
        <stop stop-color="#ffbb00" offset="0%"></stop>
        <stop stop-color="#fc4c35" offset="50%"></stop>
        <stop stop-color="#ff1b85" offset="100%"></stop>
      </linearGradient>
    </defs>
    <path
      fill="url(#sw-gradient-0)"
      d="M0,441L60,416.5C120,392,240,343,360,294C480,245,600,196,720,196C840,196,960,245,1080,220.5C1200,196,1320,98,1440,49C1560,0,1680,0,1800,57.2C1920,114,2040,229,2160,245C2280,261,2400,180,2520,196C2640,212,2760,327,2880,318.5C3000,310,3120,180,3240,179.7C3360,180,3480,310,3600,351.2C3720,392,3840,343,3960,310.3C4080,278,4200,261,4320,277.7C4440,294,4560,343,4680,302.2C4800,261,4920,131,5040,138.8C5160,147,5280,294,5400,326.7C5520,359,5640,278,5760,220.5C5880,163,6000,131,6120,130.7C6240,131,6360,163,6480,155.2C6600,147,6720,98,6840,65.3C6960,33,7080,16,7200,16.3C7320,16,7440,33,7560,89.8C7680,147,7800,245,7920,310.3C8040,376,8160,408,8280,416.5C8400,425,8520,408,8580,400.2L8640,392L8640,490L8580,490C8520,490,8400,490,8280,490C8160,490,8040,490,7920,490C7800,490,7680,490,7560,490C7440,490,7320,490,7200,490C7080,490,6960,490,6840,490C6720,490,6600,490,6480,490C6360,490,6240,490,6120,490C6000,490,5880,490,5760,490C5640,490,5520,490,5400,490C5280,490,5160,490,5040,490C4920,490,4800,490,4680,490C4560,490,4440,490,4320,490C4200,490,4080,490,3960,490C3840,490,3720,490,3600,490C3480,490,3360,490,3240,490C3120,490,3000,490,2880,490C2760,490,2640,490,2520,490C2400,490,2280,490,2160,490C2040,490,1920,490,1800,490C1680,490,1560,490,1440,490C1320,490,1200,490,1080,490C960,490,840,490,720,490C600,490,480,490,360,490C240,490,120,490,60,490L0,490Z"
    ></path>
  </svg>