<svg width="600" height="600" viewBox="0 0 600 600" fill="none" xmlns="http://www.w3.org/2000/svg">
<path d="M558 276C558 348.9 510.867 410.757 445.5 432.586C431.568 437.239 422.5 438 411 441C408.349 441.127 385.5 448 377 452.5C368.5 457 327 477 317 504C307 452 338 430.5 347 423C326.5 425.5 286 425.5 266.5 423C247 420.5 188 404.692 170 400C152 395.308 86.5 392.5 34 454.5C37.7549 419.454 67.5 377.5 114.5 353C140.345 339.527 188 324 201 312.5C214 301 221.5 287 197.5 284.5C173.5 282 144.5 302 123.5 306.5C102.5 311 85.1394 310.645 78.5 309.5C107 305.5 122.5 290.5 142 271.5C161.5 252.5 170.5 244.5 189.5 237C208.5 229.5 219.5 226.987 238 226.5C256.5 226.013 249 203.5 234 207C219 210.5 211 213.5 185.5 200.5C215.5 204.5 246 177 277.5 154.5C309 132 319.54 128.378 326.5 125.261C346.965 116.096 369.639 111 393.5 111C484.351 111 558 184.873 558 276Z" fill="url(#paint0_linear_2_14)"/>
<circle cx="393" cy="276" r="127" transform="rotate(-15 393 276)" fill="white"/>
<circle cx="393" cy="276" r="27" transform="rotate(-15 393 276)" fill="#F66625"/>
<path d="M366.307 174.448L411.353 271.082L375.613 280.659L366.307 174.448Z" fill="#F66625"/>
<path d="M473.042 254.035L397.072 287.332L390.601 263.184L473.042 254.035Z" fill="#F66625"/>
<defs>
<linearGradient id="paint0_linear_2_14" x1="539" y1="200" x2="34" y2="451" gradientUnits="userSpaceOnUse">
<stop stop-color="#FFBB00"/>
<stop offset="0.438123" stop-color="#FC4C35"/>
<stop offset="1" stop-color="#FF1B85"/>
</linearGradient>
</defs>
</svg>
